<?xml version="1.0" encoding="utf-8"?>
<!-- Generator: Adobe Illustrator 19.2.1, SVG Export Plug-In . SVG Version: 6.00 Build 0)  -->
<svg version="1.1" id="Layer_1" xmlns="http://www.w3.org/2000/svg" xmlns:xlink="http://www.w3.org/1999/xlink" x="0px" y="0px"
	 viewBox="0 0 129.4 128" style="enable-background:new 0 0 129.4 128;" xml:space="preserve">
<style type="text/css">
	.st0{fill:#FFFFFF;}
</style>
<path class="st0" d="M128.8,33.3c-1.9-5.7-7.9-8.7-13.6-6.9l-20.5,6.7c5.7-1.9,8.7-7.9,6.9-13.6c-1.9-5.7-7.9-8.7-13.6-6.9
	L29.7,31.8C7.1,39.2-5.3,63.5,2.2,86.2c7.4,22.6,31.8,35,54.4,27.5l55.8-18.3c5.7-1.9,8.7-7.9,6.9-13.6c-1.9-5.7-7.9-8.7-13.6-6.9
	l12.8-4.2c5.7-1.9,8.7-7.9,6.9-13.6c-1.9-5.7-7.9-8.7-13.6-6.9l10.2-3.4C127.6,45.1,130.7,39,128.8,33.3z M58.3,51.8
	c4,0,7.3,5.4,7.3,12c0,6.6-3.3,12-7.4,12s-7.3-5.4-7.3-12C51,57.1,54.3,51.8,58.3,51.8z M25.7,51.6c4,0,7.3,5.4,7.3,12
	c0,6.6-3.3,12-7.4,12c-4,0-7.3-5.4-7.3-12C18.4,57,21.6,51.6,25.7,51.6z M66.7,85.9c-6.3,6.3-14.5,9.8-23.3,10.2l0,6.7
	c0,0.9-0.7,1.5-1.5,1.5c-0.9,0-1.5-0.7-1.5-1.5l0-6.7c-8.8-0.4-17-4-23.3-10.4c-0.7-0.7-0.7-1.8,0-2.5c0.7-0.7,1.8-0.7,2.5,0
	c5.6,5.6,12.9,8.9,20.8,9.3l0-11.2l-5,0l5-11L40.5,46c0-0.9,0.7-1.5,1.5-1.5c0.9,0,1.5,0.7,1.5,1.5l-0.1,24.4l5,11.1l-5,0l0,11.2
	c7.9-0.3,15.2-3.6,20.9-9.2c0.7-0.7,1.8-0.7,2.5,0C67.4,84.1,67.4,85.2,66.7,85.9z"/>
</svg>
