<?xml version="1.0" encoding="utf-8"?>
<!-- Generator: Adobe Illustrator 16.0.0, SVG Export Plug-In . SVG Version: 6.00 Build 0)  -->
<!DOCTYPE svg PUBLIC "-//W3C//DTD SVG 1.1//EN" "http://www.w3.org/Graphics/SVG/1.1/DTD/svg11.dtd">
<svg version="1.1" id="Layer_1" xmlns="http://www.w3.org/2000/svg" xmlns:xlink="http://www.w3.org/1999/xlink" x="0px" y="0px"
	 width="200px" height="160px" viewBox="0 0 200 160" enable-background="new 0 0 200 160" xml:space="preserve">
<path fill="#FFFFFF" d="M196.815,33.466c-2.799-8.54-11.991-13.194-20.531-10.395l-30.925,10.137
	c8.54-2.799,13.194-11.991,10.395-20.532c-2.799-8.54-11.99-13.193-20.531-10.395l-88.016,28.85
	C13.046,42.328-5.569,79.096,5.627,113.256c11.197,34.159,47.965,52.774,82.125,41.579l84.145-27.582
	c8.54-2.797,13.194-11.99,10.396-20.53c-2.8-8.539-11.991-13.194-20.531-10.396l19.335-6.335
	c8.539-2.801,13.193-11.992,10.395-20.533c-2.8-8.539-11.992-13.193-20.531-10.394l15.463-5.069
	C194.961,51.199,199.615,42.007,196.815,33.466z M90.388,61.316c6.095,0.021,11.006,8.153,10.971,18.162
	c-0.036,10.008-5.007,18.104-11.102,18.082c-6.095-0.021-11.007-8.152-10.971-18.161S84.292,61.295,90.388,61.316z M41.135,61.139
	c6.095,0.022,11.008,8.153,10.972,18.163C52.071,89.31,47.1,97.405,41.004,97.383c-6.096-0.021-11.008-8.152-10.972-18.162
	C30.068,69.212,35.039,61.117,41.135,61.139z M103.066,112.84c-9.508,9.439-21.946,14.844-35.236,15.367l-0.037,10.085
	c-0.005,1.283-1.049,2.32-2.333,2.316c-1.284-0.006-2.321-1.05-2.317-2.333l0.037-10.085c-13.286-0.618-25.684-6.111-35.125-15.622
	c-1.021-1.028-1.016-2.691,0.014-3.713c1.029-1.022,2.692-1.017,3.713,0.014c8.453,8.513,19.534,13.455,31.417,14.063l0.06-16.835
	l-7.545-0.028L63.32,89.42l0.132-36.846c0.004-1.285,1.049-2.321,2.333-2.316c1.283,0.004,2.321,1.049,2.317,2.332l-0.132,36.848
	l7.485,16.704l-7.545-0.028l-0.06,16.838c11.887-0.524,23.003-5.388,31.516-13.84c1.029-1.021,2.693-1.016,3.715,0.015
	C104.102,110.153,104.096,111.817,103.066,112.84z"/>
</svg>
